<?xml version="1.0" encoding="utf-8"?>
<!-- Generator: Adobe Illustrator 25.2.0, SVG Export Plug-In . SVG Version: 6.00 Build 0)  -->
<svg version="1.1" id="圖層_1" xmlns="http://www.w3.org/2000/svg" xmlns:xlink="http://www.w3.org/1999/xlink" x="0px" y="0px"
	 viewBox="0 0 100.7 101.5" style="enable-background:new 0 0 100.7 101.5;" xml:space="preserve">
<style type="text/css">
	.st0{fill:none;stroke:#FFFFFF;stroke-linecap:round;stroke-linejoin:round;}
	.st1{fill:#1C1C3E;}
	.st2{fill:#CF6650;}
	.st3{fill:#E38743;}
	.st4{fill:#A83C35;}
	.st5{fill:#A2A8B2;}
	.st6{fill:#EDEDF2;}
	.st7{fill:#BDC4C8;}
	.st8{fill:#838695;}
	.st9{fill:#5C5E71;}
	.st10{fill:#443D50;}
	.st11{fill:#DC9C2B;}
	.st12{fill:#FDBD39;}
	.st13{fill:#FDDA7A;}
	.st14{fill:#6C3F2E;}
	.st15{fill:#A26823;}
</style>
<line class="st0" x1="69.5" y1="61.5" x2="0" y2="0"/>
<g>
	<rect x="85.5" y="41.6" class="st1" width="4" height="4"/>
	<rect x="81.5" y="41.6" class="st1" width="4" height="4"/>
	<rect x="89.5" y="45.6" class="st1" width="4" height="4"/>
	<rect x="85.5" y="45.6" class="st2" width="4" height="4"/>
	<rect x="81.5" y="45.6" class="st3" width="4" height="4"/>
	<rect x="77.5" y="45.6" class="st1" width="4" height="4"/>
	<rect x="73.5" y="45.6" class="st1" width="4" height="4"/>
	<rect x="93.4" y="49.6" class="st1" width="4" height="4"/>
	<rect x="89.5" y="49.6" class="st3" width="4" height="4"/>
	<rect x="85.5" y="49.6" class="st4" width="4" height="4"/>
	<rect x="81.5" y="49.6" class="st4" width="4" height="4"/>
	<rect x="77.5" y="49.6" class="st4" width="4" height="4"/>
	<rect x="73.5" y="49.6" class="st5" width="4" height="4"/>
	<rect x="69.5" y="49.6" class="st1" width="4" height="4"/>
	<rect x="93.4" y="53.5" class="st1" width="4" height="4"/>
	<rect x="89.5" y="53.5" class="st4" width="4" height="4"/>
	<rect x="85.5" y="53.5" class="st4" width="4" height="4"/>
	<rect x="81.5" y="53.5" class="st5" width="4" height="4"/>
	<rect x="77.5" y="53.5" class="st6" width="4" height="4"/>
	<rect x="73.5" y="53.5" class="st7" width="4" height="4"/>
	<rect x="69.5" y="53.5" class="st1" width="4" height="4"/>
	<rect x="93.4" y="57.5" class="st1" width="4" height="4"/>
	<rect x="89.5" y="57.5" class="st5" width="4" height="4"/>
	<rect x="85.5" y="57.5" class="st5" width="4" height="4"/>
	<rect x="81.5" y="57.5" class="st1" width="4" height="4"/>
	<rect x="77.5" y="57.5" class="st7" width="4" height="4"/>
	<rect x="73.5" y="57.5" class="st6" width="4" height="4"/>
	<rect x="69.5" y="57.5" class="st1" width="4" height="4"/>
	<rect x="53.6" y="57.5" class="st1" width="4" height="4"/>
	<rect x="49.6" y="57.5" class="st1" width="4" height="4"/>
	<rect x="97.4" y="61.5" class="st1" width="4" height="4"/>
	<rect x="93.4" y="61.5" class="st3" width="4" height="4"/>
	<rect x="89.5" y="61.5" class="st2" width="4" height="4"/>
	<rect x="85.5" y="61.5" class="st6" width="4" height="4"/>
	<rect x="81.5" y="61.5" class="st1" width="4" height="4"/>
	<rect x="77.5" y="61.5" class="st6" width="4" height="4"/>
	<rect x="73.5" y="61.5" class="st6" width="4" height="4"/>
	<rect x="69.5" y="61.5" class="st7" width="4" height="4"/>
	<rect x="65.5" y="61.5" class="st1" width="4" height="4"/>
	<rect x="57.6" y="61.5" class="st1" width="4" height="4"/>
	<rect x="53.6" y="61.5" class="st7" width="4" height="4"/>
	<rect x="49.6" y="61.5" class="st6" width="4" height="4"/>
	<rect x="45.6" y="61.5" class="st1" width="4" height="4"/>
	<rect x="93.4" y="65.5" class="st1" width="4" height="4"/>
	<rect x="89.5" y="65.5" class="st8" width="4" height="4"/>
	<rect x="85.5" y="65.5" class="st6" width="4" height="4"/>
	<rect x="81.5" y="65.5" class="st6" width="4" height="4"/>
	<rect x="77.5" y="65.5" class="st6" width="4" height="4"/>
	<rect x="73.5" y="65.5" class="st6" width="4" height="4"/>
	<rect x="69.5" y="65.5" class="st6" width="4" height="4"/>
	<rect x="65.5" y="65.5" class="st7" width="4" height="4"/>
	<rect x="61.6" y="65.5" class="st1" width="4" height="4"/>
	<rect x="57.6" y="65.5" class="st7" width="4" height="4"/>
	<rect x="53.6" y="65.5" class="st6" width="4" height="4"/>
	<rect x="49.6" y="65.5" class="st6" width="4" height="4"/>
	<rect x="45.6" y="65.5" class="st1" width="4" height="4"/>
	<rect x="97.4" y="69.5" class="st1" width="4" height="4"/>
	<rect x="93.4" y="69.5" class="st5" width="4" height="4"/>
	<rect x="89.5" y="69.5" class="st7" width="4" height="4"/>
	<rect x="85.5" y="69.5" class="st6" width="4" height="4"/>
	<rect x="81.5" y="69.5" class="st7" width="4" height="4"/>
	<rect x="77.5" y="69.5" class="st6" width="4" height="4"/>
	<rect x="73.5" y="69.5" class="st6" width="4" height="4"/>
	<rect x="69.5" y="69.5" class="st6" width="4" height="4"/>
	<rect x="65.5" y="69.5" class="st6" width="4" height="4"/>
	<rect x="61.6" y="69.5" class="st1" width="4" height="4"/>
	<rect x="57.6" y="69.5" class="st6" width="4" height="4"/>
	<rect x="53.6" y="69.5" class="st6" width="4" height="4"/>
	<rect x="49.6" y="69.5" class="st1" width="4" height="4"/>
	<rect x="45.6" y="69.5" class="st1" width="4" height="4"/>
	<rect x="97.4" y="73.5" class="st1" width="4" height="4"/>
	<rect x="93.4" y="73.5" class="st5" width="4" height="4"/>
	<rect x="89.5" y="73.5" class="st6" width="4" height="4"/>
	<rect x="85.5" y="73.5" class="st7" width="4" height="4"/>
	<rect x="81.5" y="73.5" class="st6" width="4" height="4"/>
	<rect x="77.5" y="73.5" class="st7" width="4" height="4"/>
	<rect x="73.5" y="73.5" class="st6" width="4" height="4"/>
	<rect x="69.5" y="73.5" class="st6" width="4" height="4"/>
	<rect x="65.5" y="73.5" class="st6" width="4" height="4"/>
	<rect x="61.6" y="73.5" class="st6" width="4" height="4"/>
	<rect x="57.6" y="73.5" class="st6" width="4" height="4"/>
	<rect x="53.6" y="73.5" class="st1" width="4" height="4"/>
	<rect x="49.6" y="73.5" class="st6" width="4" height="4"/>
	<rect x="45.6" y="73.5" class="st1" width="4" height="4"/>
	<rect x="97.4" y="77.5" class="st1" width="4" height="4"/>
	<rect x="93.4" y="77.5" class="st9" width="4" height="4"/>
	<rect x="89.5" y="77.5" class="st5" width="4" height="4"/>
	<rect x="85.5" y="77.5" class="st7" width="4" height="4"/>
	<rect x="81.5" y="77.5" class="st9" width="4" height="4"/>
	<rect x="77.5" y="77.5" class="st6" width="4" height="4"/>
	<rect x="73.5" y="77.5" class="st7" width="4" height="4"/>
	<rect x="69.5" y="77.5" class="st6" width="4" height="4"/>
	<rect x="65.5" y="77.5" class="st7" width="4" height="4"/>
	<rect x="61.6" y="77.5" class="st6" width="4" height="4"/>
	<rect x="57.6" y="77.5" class="st7" width="4" height="4"/>
	<rect x="53.6" y="77.5" class="st7" width="4" height="4"/>
	<rect x="49.6" y="77.5" class="st5" width="4" height="4"/>
	<rect x="45.6" y="77.5" class="st1" width="4" height="4"/>
	<rect x="93.4" y="81.4" class="st1" width="4" height="4"/>
	<rect x="89.5" y="81.4" class="st8" width="4" height="4"/>
	<rect x="85.5" y="81.4" class="st5" width="4" height="4"/>
	<rect x="81.5" y="81.4" class="st7" width="4" height="4"/>
	<rect x="77.5" y="81.4" class="st9" width="4" height="4"/>
	<rect x="73.5" y="81.4" class="st6" width="4" height="4"/>
	<rect x="69.5" y="81.4" class="st7" width="4" height="4"/>
	<rect x="65.5" y="81.4" class="st6" width="4" height="4"/>
	<rect x="61.6" y="81.4" class="st7" width="4" height="4"/>
	<rect x="57.6" y="81.4" class="st10" width="4" height="4"/>
	<rect x="53.6" y="81.4" class="st10" width="4" height="4"/>
	<rect x="49.6" y="81.4" class="st1" width="4" height="4"/>
	<rect x="93.4" y="85.4" class="st1" width="4" height="4"/>
	<rect x="89.5" y="85.4" class="st9" width="4" height="4"/>
	<rect x="85.5" y="85.4" class="st8" width="4" height="4"/>
	<rect x="81.5" y="85.4" class="st5" width="4" height="4"/>
	<rect x="77.5" y="85.4" class="st8" width="4" height="4"/>
	<rect x="73.5" y="85.4" class="st9" width="4" height="4"/>
	<rect x="69.5" y="85.4" class="st9" width="4" height="4"/>
	<rect x="65.5" y="85.4" class="st10" width="4" height="4"/>
	<rect x="61.6" y="85.4" class="st10" width="4" height="4"/>
	<rect x="57.6" y="85.4" class="st9" width="4" height="4"/>
	<rect x="53.6" y="85.4" class="st10" width="4" height="4"/>
	<rect x="49.6" y="85.4" class="st1" width="4" height="4"/>
	<rect x="89.5" y="89.4" class="st1" width="4" height="4"/>
	<rect x="85.5" y="89.4" class="st1" width="4" height="4"/>
	<rect x="81.5" y="89.4" class="st9" width="4" height="4"/>
	<rect x="77.5" y="89.4" class="st8" width="4" height="4"/>
	<rect x="73.5" y="89.4" class="st9" width="4" height="4"/>
	<rect x="69.5" y="89.4" class="st8" width="4" height="4"/>
	<rect x="65.5" y="89.4" class="st9" width="4" height="4"/>
	<rect x="61.6" y="89.4" class="st9" width="4" height="4"/>
	<rect x="57.6" y="89.4" class="st9" width="4" height="4"/>
	<rect x="53.6" y="89.4" class="st1" width="4" height="4"/>
	<rect x="81.5" y="93.4" class="st1" width="4" height="4"/>
	<rect x="77.5" y="93.4" class="st3" width="4" height="4"/>
	<rect x="73.5" y="93.4" class="st1" width="4" height="4"/>
	<rect x="69.5" y="93.4" class="st9" width="4" height="4"/>
	<rect x="65.5" y="93.4" class="st1" width="4" height="4"/>
	<rect x="61.6" y="93.4" class="st3" width="4" height="4"/>
	<rect x="57.6" y="93.4" class="st1" width="4" height="4"/>
	<rect x="85.5" y="97.4" class="st1" width="4" height="4"/>
	<rect x="81.5" y="97.4" class="st1" width="4" height="4"/>
	<rect x="77.5" y="97.4" class="st1" width="4" height="4"/>
	<rect x="69.5" y="97.4" class="st1" width="4" height="4"/>
	<rect x="65.5" y="97.4" class="st1" width="4" height="4"/>
	<rect x="61.6" y="97.4" class="st1" width="4" height="4"/>
</g>
</svg>
