<svg xmlns="http://www.w3.org/2000/svg" viewBox="0 0 100.66 101.47"><defs><style>.cls-1{fill:#fff;}.cls-2{fill:#adaab7;}.cls-3{fill:#c6c3d1;}.cls-4{fill:#85838c;}.cls-5{fill:#918f99;}.cls-6{fill:#9f9da8;}.cls-7{fill:#9e204d;}.cls-8{fill:#b02255;}.cls-9{fill:#801c3f;}.cls-10{fill:#737179;}.cls-11{fill:#5a595e;}.cls-12{fill:#392b1c;}.cls-13{fill:#efc2de;}.cls-14{fill:none;stroke:#fff;stroke-linecap:round;stroke-linejoin:round;}</style></defs><g id="OBJECTS"><rect class="cls-1" x="47.68" y="90.94" width="5.3" height="5.27"/><rect class="cls-2" x="47.68" y="80.42" width="5.3" height="5.26"/><rect class="cls-3" x="47.68" y="85.68" width="5.3" height="5.26"/><rect class="cls-4" x="47.68" y="75.15" width="5.3" height="5.27"/><rect class="cls-2" x="52.98" y="75.15" width="5.3" height="5.27"/><rect class="cls-5" x="52.98" y="80.42" width="5.3" height="5.26"/><rect class="cls-1" x="26.49" y="90.94" width="5.3" height="5.27"/><rect class="cls-5" x="26.49" y="80.42" width="5.3" height="5.26"/><rect class="cls-5" x="26.49" y="75.15" width="5.3" height="5.27"/><rect class="cls-6" x="26.49" y="69.89" width="5.3" height="5.26"/><rect class="cls-5" x="26.49" y="85.68" width="5.3" height="5.26"/><rect class="cls-2" x="31.79" y="80.42" width="5.29" height="5.26"/><rect class="cls-3" x="31.79" y="85.68" width="5.29" height="5.26"/><rect class="cls-3" x="31.79" y="69.89" width="5.29" height="5.26"/><rect class="cls-1" x="31.79" y="90.94" width="5.29" height="5.27"/><rect class="cls-6" x="31.79" y="75.15" width="5.29" height="5.27"/><rect class="cls-2" x="37.08" y="80.42" width="5.3" height="5.26"/><rect class="cls-2" x="37.08" y="75.15" width="5.3" height="5.27"/><rect class="cls-6" x="37.08" y="69.89" width="5.3" height="5.26"/><rect class="cls-1" x="42.38" y="90.94" width="5.3" height="5.27"/><rect class="cls-5" x="42.38" y="85.68" width="5.3" height="5.26"/><rect class="cls-2" x="42.38" y="75.15" width="5.3" height="5.27"/><rect class="cls-2" x="42.38" y="80.42" width="5.3" height="5.26"/><rect class="cls-3" x="42.38" y="69.89" width="5.3" height="5.26"/><rect class="cls-7" x="68.87" y="64.63" width="5.3" height="5.26"/><rect class="cls-5" x="68.87" y="80.42" width="5.3" height="5.26"/><rect class="cls-2" x="68.87" y="75.15" width="5.3" height="5.27"/><rect class="cls-2" x="68.87" y="69.89" width="5.3" height="5.26"/><rect class="cls-4" x="68.87" y="59.36" width="5.3" height="5.27"/><rect class="cls-2" x="74.17" y="75.15" width="5.3" height="5.27"/><rect class="cls-4" x="74.17" y="59.36" width="5.3" height="5.27"/><rect class="cls-1" x="74.17" y="90.94" width="5.3" height="5.27"/><rect class="cls-2" x="74.17" y="69.89" width="5.3" height="5.26"/><rect class="cls-8" x="74.17" y="64.63" width="5.3" height="5.26"/><rect class="cls-2" x="74.17" y="80.42" width="5.3" height="5.26"/><rect class="cls-5" x="74.17" y="85.68" width="5.3" height="5.26"/><rect class="cls-3" x="79.47" y="69.89" width="5.3" height="5.26"/><rect class="cls-1" x="79.47" y="90.94" width="5.3" height="5.27"/><rect class="cls-9" x="79.47" y="64.63" width="5.3" height="5.26"/><rect class="cls-3" x="79.47" y="75.15" width="5.3" height="5.27"/><rect class="cls-3" x="79.47" y="80.42" width="5.3" height="5.26"/><rect class="cls-4" x="79.47" y="59.36" width="5.3" height="5.27"/><rect class="cls-3" x="79.47" y="85.68" width="5.3" height="5.26"/><rect class="cls-3" x="47.68" y="64.63" width="5.3" height="5.26"/><rect class="cls-4" x="47.68" y="69.89" width="5.3" height="5.26"/><rect class="cls-4" x="52.98" y="64.63" width="5.3" height="5.26"/><rect class="cls-10" x="52.98" y="59.36" width="5.3" height="5.27"/><rect class="cls-2" x="52.98" y="69.89" width="5.3" height="5.26"/><rect class="cls-1" x="58.28" y="90.94" width="5.29" height="5.27"/><rect class="cls-5" x="58.28" y="85.68" width="5.29" height="5.26"/><rect class="cls-2" x="58.28" y="80.42" width="5.29" height="5.26"/><rect class="cls-2" x="58.28" y="75.15" width="5.29" height="5.27"/><rect class="cls-2" x="58.28" y="69.89" width="5.29" height="5.26"/><rect class="cls-2" x="58.28" y="64.63" width="5.29" height="5.26"/><rect class="cls-9" x="58.28" y="59.36" width="5.29" height="5.27"/><rect class="cls-2" x="63.57" y="80.42" width="5.3" height="5.26"/><rect class="cls-1" x="63.57" y="90.94" width="5.3" height="5.27"/><rect class="cls-2" x="63.57" y="75.15" width="5.3" height="5.27"/><rect class="cls-3" x="63.57" y="85.68" width="5.3" height="5.26"/><rect class="cls-2" x="63.57" y="69.89" width="5.3" height="5.26"/><rect class="cls-2" x="63.57" y="64.63" width="5.3" height="5.26"/><rect class="cls-7" x="63.57" y="59.36" width="5.3" height="5.27"/><rect class="cls-6" x="68.87" y="54.1" width="5.3" height="5.26"/><rect class="cls-11" x="74.17" y="54.1" width="5.3" height="5.26"/><rect class="cls-5" x="79.47" y="54.1" width="5.3" height="5.26"/><rect class="cls-6" x="63.57" y="54.1" width="5.3" height="5.26"/><rect class="cls-10" x="5.3" y="64.63" width="5.29" height="5.26"/><rect class="cls-3" x="5.3" y="59.36" width="5.29" height="5.27"/><rect class="cls-3" x="5.3" y="54.1" width="5.29" height="5.26"/><rect class="cls-3" x="5.3" y="48.84" width="5.29" height="5.26"/><rect class="cls-5" x="15.89" y="64.63" width="5.3" height="5.26"/><rect class="cls-10" x="15.89" y="69.89" width="5.3" height="5.26"/><rect class="cls-10" x="10.59" y="69.89" width="5.3" height="5.26"/><rect class="cls-10" x="10.59" y="54.1" width="5.3" height="5.26"/><rect class="cls-5" x="10.59" y="64.63" width="5.3" height="5.26"/><rect class="cls-2" x="10.59" y="59.36" width="5.3" height="5.27"/><rect class="cls-2" x="10.59" y="48.84" width="5.3" height="5.26"/><rect class="cls-4" x="10.59" y="43.57" width="5.3" height="5.27"/><rect class="cls-3" x="10.59" y="38.31" width="5.3" height="5.26"/><rect class="cls-4" x="15.89" y="43.57" width="5.3" height="5.27"/><rect class="cls-3" x="15.89" y="33.05" width="5.3" height="5.26"/><rect class="cls-2" x="15.89" y="38.31" width="5.3" height="5.26"/><rect class="cls-3" x="21.19" y="33.05" width="5.3" height="5.26"/><rect class="cls-6" x="21.19" y="38.31" width="5.3" height="5.26"/><rect class="cls-6" x="68.87" y="33.05" width="5.3" height="5.26"/><rect class="cls-2" x="63.57" y="33.05" width="5.3" height="5.26"/><rect class="cls-3" x="63.57" y="27.78" width="5.3" height="5.27"/><rect class="cls-2" x="68.87" y="43.57" width="5.3" height="5.27"/><rect class="cls-2" x="68.87" y="48.84" width="5.3" height="5.26"/><rect class="cls-12" x="68.87" y="38.31" width="5.3" height="5.26"/><rect class="cls-2" x="74.17" y="48.84" width="5.3" height="5.26"/><rect class="cls-2" x="74.17" y="43.57" width="5.3" height="5.27"/><rect class="cls-2" x="74.17" y="38.31" width="5.3" height="5.26"/><rect class="cls-2" x="74.17" y="33.05" width="5.3" height="5.26"/><rect class="cls-13" x="79.47" y="43.57" width="5.3" height="5.27"/><rect class="cls-11" x="79.47" y="48.84" width="5.3" height="5.26"/><rect class="cls-2" x="79.47" y="38.31" width="5.3" height="5.26"/><rect class="cls-2" x="79.47" y="33.05" width="5.3" height="5.26"/><rect class="cls-4" x="58.28" y="43.57" width="5.29" height="5.27"/><rect class="cls-4" x="58.28" y="33.05" width="5.29" height="5.26"/><rect class="cls-11" x="58.28" y="27.78" width="5.29" height="5.27"/><rect class="cls-6" x="58.28" y="48.84" width="5.29" height="5.26"/><rect class="cls-4" x="58.28" y="38.31" width="5.29" height="5.26"/><rect class="cls-3" x="58.28" y="22.52" width="5.29" height="5.26"/><rect class="cls-2" x="63.57" y="48.84" width="5.3" height="5.26"/><rect class="cls-2" x="63.57" y="43.57" width="5.3" height="5.27"/><rect class="cls-2" x="63.57" y="38.31" width="5.3" height="5.26"/><rect class="cls-4" x="90.06" y="48.84" width="5.3" height="5.26"/><rect class="cls-6" x="84.77" y="33.05" width="5.29" height="5.26"/><rect class="cls-11" x="84.77" y="54.1" width="5.29" height="5.26"/><rect class="cls-3" x="84.77" y="27.78" width="5.29" height="5.27"/><rect class="cls-2" x="84.77" y="43.57" width="5.29" height="5.27"/><rect class="cls-12" x="84.77" y="38.31" width="5.29" height="5.26"/><rect class="cls-6" x="84.77" y="48.84" width="5.29" height="5.26"/><rect class="cls-2" x="90.06" y="33.05" width="5.3" height="5.26"/><rect class="cls-2" x="90.06" y="38.31" width="5.3" height="5.26"/><rect class="cls-6" x="90.06" y="43.57" width="5.3" height="5.27"/><rect class="cls-11" x="90.06" y="27.78" width="5.3" height="5.27"/><rect class="cls-3" x="90.06" y="22.52" width="5.3" height="5.26"/><rect class="cls-12" x="21.19" y="69.89" width="5.3" height="5.26"/><rect class="cls-12" x="21.19" y="64.63" width="5.3" height="5.26"/><rect class="cls-12" x="15.89" y="75.15" width="5.3" height="5.27"/><rect class="cls-12" x="21.19" y="75.15" width="5.3" height="5.27"/><rect class="cls-12" x="21.19" y="80.42" width="5.3" height="5.26"/><rect class="cls-12" x="21.19" y="85.68" width="5.3" height="5.26"/><rect class="cls-12" x="21.19" y="90.94" width="5.3" height="5.27"/><rect class="cls-12" x="37.08" y="90.94" width="5.3" height="5.27"/><rect class="cls-12" x="37.08" y="85.68" width="5.3" height="5.26"/><rect class="cls-12" x="52.98" y="85.68" width="5.3" height="5.26"/><rect class="cls-12" x="52.98" y="90.94" width="5.3" height="5.27"/><rect class="cls-12" x="68.87" y="85.68" width="5.3" height="5.26"/><rect class="cls-12" x="68.87" y="90.94" width="5.3" height="5.27"/><rect class="cls-12" x="68.87" y="96.21" width="5.3" height="5.26"/><rect class="cls-12" x="74.17" y="96.21" width="5.3" height="5.26"/><rect class="cls-12" x="79.47" y="96.21" width="5.3" height="5.26"/><rect class="cls-12" x="47.68" y="96.21" width="5.3" height="5.26"/><rect class="cls-12" x="52.98" y="96.21" width="5.3" height="5.26"/><rect class="cls-12" x="21.19" y="96.21" width="5.3" height="5.26"/><rect class="cls-12" x="26.49" y="96.21" width="5.3" height="5.26"/><rect class="cls-12" x="31.79" y="96.21" width="5.29" height="5.26"/><rect class="cls-12" x="58.28" y="96.21" width="5.29" height="5.26"/><rect class="cls-12" x="63.57" y="96.21" width="5.3" height="5.26"/><rect class="cls-12" x="37.08" y="96.21" width="5.3" height="5.26"/><rect class="cls-12" x="42.38" y="96.21" width="5.3" height="5.26"/><rect class="cls-12" x="10.59" y="75.15" width="5.3" height="5.27"/><rect class="cls-12" x="5.3" y="69.89" width="5.29" height="5.26"/><rect class="cls-12" y="59.36" width="5.3" height="5.27"/><rect class="cls-12" y="54.1" width="5.3" height="5.26"/><rect class="cls-12" y="64.63" width="5.3" height="5.26"/><rect class="cls-12" y="48.84" width="5.3" height="5.26"/><rect class="cls-12" x="5.3" y="43.57" width="5.29" height="5.27"/><rect class="cls-12" x="5.3" y="38.31" width="5.29" height="5.26"/><rect class="cls-12" x="10.59" y="33.05" width="5.3" height="5.26"/><rect class="cls-12" x="15.89" y="27.78" width="5.3" height="5.27"/><rect class="cls-12" x="21.19" y="27.78" width="5.3" height="5.27"/><rect class="cls-12" x="26.49" y="33.05" width="5.3" height="5.26"/><rect class="cls-12" x="26.49" y="38.31" width="5.3" height="5.26"/><rect class="cls-12" x="21.19" y="43.57" width="5.3" height="5.27"/><rect class="cls-12" x="15.89" y="59.36" width="5.3" height="5.27"/><rect class="cls-12" x="15.89" y="48.84" width="5.3" height="5.26"/><rect class="cls-12" x="15.89" y="54.1" width="5.3" height="5.26"/><rect class="cls-12" x="26.49" y="64.63" width="5.3" height="5.26"/><rect class="cls-12" x="31.79" y="64.63" width="5.29" height="5.26"/><rect class="cls-12" x="37.08" y="64.63" width="5.3" height="5.26"/><rect class="cls-12" x="42.38" y="64.63" width="5.3" height="5.26"/><rect class="cls-12" x="47.68" y="59.36" width="5.3" height="5.27"/><rect class="cls-12" x="52.98" y="54.1" width="5.3" height="5.26"/><rect class="cls-12" x="84.77" y="75.15" width="5.29" height="5.27"/><rect class="cls-12" x="84.77" y="59.36" width="5.29" height="5.27"/><rect class="cls-12" x="84.77" y="96.21" width="5.29" height="5.26"/><rect class="cls-12" x="84.77" y="80.42" width="5.29" height="5.26"/><rect class="cls-12" x="84.77" y="90.94" width="5.29" height="5.27"/><rect class="cls-12" x="84.77" y="85.68" width="5.29" height="5.26"/><rect class="cls-12" x="84.77" y="64.63" width="5.29" height="5.26"/><rect class="cls-12" x="84.77" y="69.89" width="5.29" height="5.26"/><rect class="cls-12" x="58.28" y="54.1" width="5.29" height="5.26"/><rect class="cls-12" x="52.98" y="33.05" width="5.3" height="5.26"/><rect class="cls-12" x="52.98" y="48.84" width="5.3" height="5.26"/><rect class="cls-12" x="52.98" y="43.57" width="5.3" height="5.27"/><rect class="cls-12" x="52.98" y="38.31" width="5.3" height="5.26"/><rect class="cls-12" x="52.98" y="27.78" width="5.3" height="5.27"/><rect class="cls-12" x="52.98" y="22.52" width="5.3" height="5.26"/><rect class="cls-12" x="58.28" y="17.26" width="5.29" height="5.26"/><rect class="cls-12" x="63.57" y="22.52" width="5.3" height="5.26"/><rect class="cls-12" x="68.87" y="27.78" width="5.3" height="5.27"/><rect class="cls-12" x="74.17" y="27.78" width="5.3" height="5.27"/><rect class="cls-12" x="79.47" y="27.78" width="5.3" height="5.27"/><rect class="cls-12" x="84.77" y="22.52" width="5.29" height="5.26"/><rect class="cls-12" x="90.06" y="54.1" width="5.3" height="5.26"/><rect class="cls-12" x="90.06" y="17.26" width="5.3" height="5.26"/><rect class="cls-12" x="95.36" y="48.84" width="5.3" height="5.26"/><rect class="cls-12" x="95.36" y="43.57" width="5.3" height="5.27"/><rect class="cls-12" x="95.36" y="38.31" width="5.3" height="5.26"/><rect class="cls-12" x="95.36" y="33.05" width="5.3" height="5.26"/><rect class="cls-12" x="95.36" y="27.78" width="5.3" height="5.27"/><rect class="cls-12" x="95.36" y="22.52" width="5.3" height="5.26"/><line class="cls-14" x1="53.95" y1="56.73"/></g></svg>