<svg xmlns="http://www.w3.org/2000/svg" viewBox="0 0 127.37 84.49"><defs><style>.cls-1{fill:#fff;}.cls-2{fill:#e7b880;}.cls-3{fill:#f3d78a;}.cls-4{fill:#3a3941;}.cls-5{fill:#cb5259;}</style></defs><g id="OBJECTS"><path class="cls-1" d="M93.53,28.33C59.87,25.1,22.09,1.08,21.71.84L22.25,0c.38.24,38,24.13,71.38,27.34Z"/><path class="cls-2" d="M63.9,57.62S53.46,69,52.69,71.78s1.69,5.84,2.61,6.92,5.7,1.23,4.62,2.15-5.06.77-7.38,0S45.76,72.26,45,69.56s4.47-21,7.54-20.86S63.9,57.62,63.9,57.62Z"/><path class="cls-2" d="M92,55.62s-8,12-7.74,16.16A33.32,33.32,0,0,0,87.34,82c.46.86,4.62.39,3.54,1.62s-4.79,1.08-6.62,0-5.69-7.75-7.69-13.56,4-16.29,4.62-17.67S92,55.62,92,55.62Z"/><path class="cls-3" d="M104.53,9.24c4.11-1.73,10.49-1.06,11.72,1.43s2.59,2.4,4.83,3c3.45.88,5.47-.69,6,2.16,2.67,14.34-14.16-2.25-15,16.34-.17,3.89,1.14,22.39-7.69,27.07-5.38,2.84,0,0-5.7,2.49s-16.77-.71-21.08,0-19.07-8.37-24.92-5.88-15.5,7.72-17,.06.42-24.46,12-27.49,25.76,6,36.47,3.25C93.08,29.3,100.52,10.94,104.53,9.24Z"/><path class="cls-3" d="M106.69,47.62S101.77,71,103.92,74.55s2.47,4.92,4.62,5.23,6.62.77,4.15,1.84-6.25,1.54-8,0-9.87-8.23-12-13.31-.92-22.23-.92-22.23Z"/><path class="cls-3" d="M63.15,49S56.84,61,51.46,64.76s-11.54,2.55-15.39,6.56-6.92,8.15-4.31,9.53,5.48,2.16,3.43,2.47-6.81.77-7.89-2-3.54-6-2.46-8.31,8.5-9.09,10.4-20.16S61.46,40.39,63.15,49Z"/><path class="cls-3" d="M51.56,28.68A43,43,0,0,0,34.79,30.8C25.54,33.82,14.43,50.1,0,43.25c0,0,2.59,15,19.59,11.58C33.4,52.06,36.83,26.42,52.83,35.3Z"/><path class="cls-4" d="M124.74,14s.18.75.42,1.63S127.33,17,127.33,17a15.58,15.58,0,0,0,0-2.47C127.24,14,125.93,14,124.74,14Z"/><path class="cls-4" d="M114.71,13.52s-.21,2.25-.71,2.33-1.54-2.33-1.54-2.33a1.93,1.93,0,0,0,.83,2.63C115,17.27,116,15.4,114.71,13.52Z"/><path class="cls-5" d="M92.92,24.65s7.66,3.86,10.66,4.61,8.5,2.89,8.5,2.89a28,28,0,0,1,0,4.41c0,.3-8.16-2.1-22.78-8C88.86,28.38,92.92,24.65,92.92,24.65Z"/><path class="cls-2" d="M109.15,12.67s-.67,16.87-3.82,17.43-8.44-3.54-7.1-10.81c1-5.37,1.69-7.62,3.75-8.3S109.05,10.62,109.15,12.67Z"/></g></svg>