<?xml version="1.0" encoding="utf-8"?>
<!-- Generator: Adobe Illustrator 25.2.0, SVG Export Plug-In . SVG Version: 6.00 Build 0)  -->
<svg version="1.1" id="圖層_1" xmlns="http://www.w3.org/2000/svg" xmlns:xlink="http://www.w3.org/1999/xlink" x="0px" y="0px"
	 viewBox="0 0 100.7 101.5" style="enable-background:new 0 0 100.7 101.5;" xml:space="preserve">
<style type="text/css">
	.st0{fill:none;stroke:#FFFFFF;stroke-linecap:round;stroke-linejoin:round;}
	.st1{fill:#1C1C3E;}
	.st2{fill:#CF6650;}
	.st3{fill:#E38743;}
	.st4{fill:#A83C35;}
	.st5{fill:#A2A8B2;}
	.st6{fill:#EDEDF2;}
	.st7{fill:#BDC4C8;}
	.st8{fill:#838695;}
	.st9{fill:#5C5E71;}
	.st10{fill:#443D50;}
	.st11{fill:#DC9C2B;}
	.st12{fill:#FDBD39;}
	.st13{fill:#FDDA7A;}
	.st14{fill:#6C3F2E;}
	.st15{fill:#A26823;}
</style>
<line class="st0" x1="67.5" y1="33.4" x2="0" y2="0"/>
<g>
	<rect x="81.8" y="26.6" class="st1" width="3.8" height="3.8"/>
	<rect x="78" y="26.6" class="st1" width="3.8" height="3.8"/>
	<rect x="74.3" y="26.6" class="st1" width="3.8" height="3.8"/>
	<rect x="85.6" y="30.4" class="st1" width="3.8" height="3.8"/>
	<rect x="81.8" y="30.4" class="st11" width="3.8" height="3.8"/>
	<rect x="78" y="30.4" class="st12" width="3.8" height="3.8"/>
	<rect x="74.3" y="30.4" class="st12" width="3.8" height="3.8"/>
	<rect x="70.5" y="30.4" class="st1" width="3.8" height="3.8"/>
	<rect x="66.7" y="30.4" class="st1" width="3.8" height="3.8"/>
	<rect x="93.1" y="34.1" class="st1" width="3.8" height="3.8"/>
	<rect x="89.3" y="34.1" class="st1" width="3.8" height="3.8"/>
	<rect x="85.6" y="34.1" class="st12" width="3.8" height="3.8"/>
	<rect x="81.8" y="34.1" class="st1" width="3.8" height="3.8"/>
	<rect x="78" y="34.1" class="st13" width="3.8" height="3.8"/>
	<rect x="74.3" y="34.1" class="st13" width="3.8" height="3.8"/>
	<rect x="70.5" y="34.1" class="st13" width="3.8" height="3.8"/>
	<rect x="66.7" y="34.1" class="st12" width="3.8" height="3.8"/>
	<rect x="62.9" y="34.1" class="st1" width="3.8" height="3.8"/>
	<rect x="96.9" y="37.9" class="st1" width="3.8" height="3.8"/>
	<rect x="93.1" y="37.9" class="st2" width="3.8" height="3.8"/>
	<rect x="89.3" y="37.9" class="st2" width="3.8" height="3.8"/>
	<rect x="85.6" y="37.9" class="st13" width="3.8" height="3.8"/>
	<rect x="81.8" y="37.9" class="st1" width="3.8" height="3.8"/>
	<rect x="78" y="37.9" class="st13" width="3.8" height="3.8"/>
	<rect x="74.3" y="37.9" class="st13" width="3.8" height="3.8"/>
	<rect x="70.5" y="37.9" class="st13" width="3.8" height="3.8"/>
	<rect x="66.7" y="37.9" class="st12" width="3.8" height="3.8"/>
	<rect x="62.9" y="37.9" class="st12" width="3.8" height="3.8"/>
	<rect x="59.2" y="37.9" class="st1" width="3.8" height="3.8"/>
	<rect x="93.1" y="41.7" class="st1" width="3.8" height="3.8"/>
	<rect x="89.3" y="41.7" class="st1" width="3.8" height="3.8"/>
	<rect x="85.6" y="41.7" class="st13" width="3.8" height="3.8"/>
	<rect x="81.8" y="41.7" class="st13" width="3.8" height="3.8"/>
	<rect x="78" y="41.7" class="st13" width="3.8" height="3.8"/>
	<rect x="74.3" y="41.7" class="st12" width="3.8" height="3.8"/>
	<rect x="70.5" y="41.7" class="st13" width="3.8" height="3.8"/>
	<rect x="66.7" y="41.7" class="st13" width="3.8" height="3.8"/>
	<rect x="62.9" y="41.7" class="st12" width="3.8" height="3.8"/>
	<rect x="59.2" y="41.7" class="st12" width="3.8" height="3.8"/>
	<rect x="55.4" y="41.7" class="st1" width="3.8" height="3.8"/>
	<rect x="89.3" y="45.5" class="st1" width="3.8" height="3.8"/>
	<rect x="85.6" y="45.5" class="st12" width="3.8" height="3.8"/>
	<rect x="81.8" y="45.5" class="st13" width="3.8" height="3.8"/>
	<rect x="78" y="45.5" class="st13" width="3.8" height="3.8"/>
	<rect x="74.3" y="45.5" class="st14" width="3.8" height="3.8"/>
	<rect x="70.5" y="45.5" class="st12" width="3.8" height="3.8"/>
	<rect x="66.7" y="45.5" class="st13" width="3.8" height="3.8"/>
	<rect x="62.9" y="45.5" class="st13" width="3.8" height="3.8"/>
	<rect x="59.2" y="45.5" class="st13" width="3.8" height="3.8"/>
	<rect x="55.4" y="45.5" class="st1" width="3.8" height="3.8"/>
	<rect x="51.6" y="45.5" class="st1" width="3.8" height="3.8"/>
	<rect x="85.6" y="49.2" class="st1" width="3.8" height="3.8"/>
	<rect x="81.8" y="49.2" class="st12" width="3.8" height="3.8"/>
	<rect x="78" y="49.2" class="st11" width="3.8" height="3.8"/>
	<rect x="74.3" y="49.2" class="st11" width="3.8" height="3.8"/>
	<rect x="70.5" y="49.2" class="st14" width="3.8" height="3.8"/>
	<rect x="66.7" y="49.2" class="st14" width="3.8" height="3.8"/>
	<rect x="62.9" y="49.2" class="st11" width="3.8" height="3.8"/>
	<rect x="59.2" y="49.2" class="st1" width="3.8" height="3.8"/>
	<rect x="81.8" y="53" class="st1" width="3.8" height="3.8"/>
	<rect x="78" y="53" class="st15" width="3.8" height="3.8"/>
	<rect x="74.3" y="53" class="st15" width="3.8" height="3.8"/>
	<rect x="70.5" y="53" class="st15" width="3.8" height="3.8"/>
	<rect x="66.7" y="53" class="st14" width="3.8" height="3.8"/>
	<rect x="62.9" y="53" class="st1" width="3.8" height="3.8"/>
	<rect x="81.8" y="56.8" class="st1" width="3.8" height="3.8"/>
	<rect x="78" y="56.8" class="st15" width="3.8" height="3.8"/>
	<rect x="74.3" y="56.8" class="st1" width="3.8" height="3.8"/>
	<rect x="70.5" y="56.8" class="st1" width="3.8" height="3.8"/>
	<rect x="66.7" y="56.8" class="st15" width="3.8" height="3.8"/>
	<rect x="62.9" y="56.8" class="st1" width="3.8" height="3.8"/>
	<rect x="78" y="60.6" class="st1" width="3.8" height="3.8"/>
	<rect x="66.7" y="60.6" class="st1" width="3.8" height="3.8"/>
	<rect x="81.8" y="64.3" class="st1" width="3.8" height="3.8"/>
	<rect x="78" y="64.3" class="st1" width="3.8" height="3.8"/>
	<rect x="70.5" y="64.3" class="st1" width="3.8" height="3.8"/>
	<rect x="66.7" y="64.3" class="st1" width="3.8" height="3.8"/>
</g>
</svg>
