<svg id="圖層_1" data-name="圖層 1" xmlns="http://www.w3.org/2000/svg" viewBox="0 0 30 30"><defs><style>.cls-1{fill:#fff9e9;}.cls-2{fill:#fde557;}</style></defs><path class="cls-1" d="M6.09,21.26c1.48-1.48,6.4-5.59,7.2-4.79S10.46,22.67,9,24.15s-3.32,2-4.11,1.22S4.62,22.73,6.09,21.26Z"/><path class="cls-1" d="M21,5.85c-1.48,1.48-5.59,6.41-4.79,7.21s6.2-2.84,7.68-4.32,2-3.31,1.22-4.11S22.49,4.38,21,5.85Z"/><path class="cls-1" d="M8.74,6.09c1.48,1.48,5.59,6.4,4.79,7.2S7.33,10.46,5.85,9s-2-3.32-1.22-4.11S7.27,4.62,8.74,6.09Z"/><path class="cls-1" d="M24.15,21c-1.48-1.48-6.41-5.59-7.21-4.79s2.84,6.2,4.32,7.68,3.31,2,4.11,1.22S25.62,22.49,24.15,21Z"/><path class="cls-1" d="M4.28,13.12c2.08,0,8.47.58,8.47,1.71s-6.39,2.38-8.47,2.38S.5,16.3.5,15.17,2.19,13.12,4.28,13.12Z"/><path class="cls-1" d="M25.72,12.79c-2.08,0-8.47.58-8.47,1.71s6.39,2.38,8.47,2.38,3.78-.92,3.78-2S27.81,12.79,25.72,12.79Z"/><path class="cls-1" d="M16.88,4.28c0,2.08-.58,8.47-1.71,8.47s-2.38-6.39-2.38-8.47S13.7.5,14.83.5,16.88,2.19,16.88,4.28Z"/><path class="cls-1" d="M17.21,25.72c0-2.08-.58-8.47-1.71-8.47s-2.38,6.39-2.38,8.47S14,29.5,15.17,29.5,17.21,27.81,17.21,25.72Z"/><circle class="cls-2" cx="15.17" cy="15.18" r="3.74" transform="translate(-1.81 28.31) rotate(-82.74)"/></svg>