<svg id="圖層_1" data-name="圖層 1" xmlns="http://www.w3.org/2000/svg" viewBox="0 0 30 30"><defs><style>.cls-1{fill:#fff9e9;}.cls-2{fill:#fde557;}</style></defs><path class="cls-1" d="M12.53,4.4c.82,1.92,2.78,8,1.75,8.47S9.59,7.92,8.77,6s-.64-3.84.4-4.28S11.71,2.48,12.53,4.4Z"/><path class="cls-1" d="M21.23,24c-.82-1.92-3.85-7.57-4.89-7.13s.31,6.81,1.13,8.73,2.32,3.12,3.36,2.68S22.05,25.92,21.23,24Z"/><path class="cls-1" d="M6,21.23c1.92-.82,7.57-3.85,7.13-4.89s-6.81.31-8.73,1.13-3.12,2.32-2.68,3.36S4.08,22.05,6,21.23Z"/><path class="cls-1" d="M20.75,5.76C20,7.69,17,13.4,16,13s.18-6.82,1-8.75,2.26-3.16,3.31-2.74S21.53,3.82,20.75,5.76Z"/><path class="cls-1" d="M13,25.77c.78-1.93,2.63-8.08,1.59-8.5s-4.6,5-5.38,7-.56,3.85.48,4.27S12.26,27.71,13,25.77Z"/><path class="cls-1" d="M24.24,20.75C22.31,20,16.6,17,17,16s6.82.18,8.75,1,3.16,2.26,2.74,3.31S26.18,21.53,24.24,20.75Z"/><path class="cls-1" d="M4.23,13c1.93.78,8.08,2.63,8.5,1.59s-5-4.6-7-5.38-3.85-.56-4.27.48S2.29,12.26,4.23,13Z"/><circle class="cls-2" cx="14.77" cy="15.09" r="3.74" transform="translate(-5.61 20.61) rotate(-60.77)"/></svg>