<svg id="圖層_1" data-name="圖層 1" xmlns="http://www.w3.org/2000/svg" viewBox="0 0 30 30"><defs><style>.cls-1{fill:#fff9e9;}.cls-2{fill:#fde557;}</style></defs><path class="cls-1" d="M8.7,23.87c.89-1.88,4.16-7.4,5.18-6.91s-.6,6.79-1.5,8.67-2.45,3-3.47,2.53S7.8,25.76,8.7,23.87Z"/><path class="cls-1" d="M17.62,4.37c-.9,1.88-3.13,7.9-2.11,8.39S20.41,8,21.3,6.13s.8-3.81-.21-4.29S18.51,2.49,17.62,4.37Z"/><path class="cls-1" d="M25.63,17.62c-1.88-.9-7.9-3.13-8.39-2.11s4.75,4.9,6.63,5.79,3.81.8,4.29-.21S27.51,18.51,25.63,17.62Z"/><path class="cls-1" d="M4.27,16.82c2-.7,8.18-2.29,8.56-1.23S7.6,20,5.63,20.67s-3.86.4-4.24-.67S2.3,17.51,4.27,16.82Z"/><path class="cls-1" d="M24.37,9.33c-2,.7-7.8,3.38-7.42,4.44s6.82.11,8.78-.59S29,11.06,28.61,10,26.33,8.63,24.37,9.33Z"/><path class="cls-1" d="M20.67,24.37c-.7-2-3.38-7.8-4.44-7.42s-.11,6.82.59,8.78S18.94,29,20,28.61,21.37,26.33,20.67,24.37Z"/><circle class="cls-2" cx="15.22" cy="15.12" r="3.74" transform="translate(-2.86 3.58) rotate(-12.26)"/></svg>