<svg id="圖層_1" data-name="圖層 1" xmlns="http://www.w3.org/2000/svg" viewBox="0 0 30 30"><defs><style>.cls-1{fill:#fff9e9;}.cls-2{fill:#fde557;}</style></defs><path class="cls-1" d="M17.91,4.51c-.21,2.08-1.44,8.38-2.57,8.26s-1.71-6.6-1.49-8.68S15.15.43,16.27.55,18.13,2.44,17.91,4.51Z"/><path class="cls-1" d="M16,25.88c.22-2.08.3-8.49-.82-8.61s-3,6.11-3.24,8.19.52,3.85,1.64,4S15.83,28,16,25.88Z"/><path class="cls-1" d="M25.42,18c-2.08-.22-8.37-1.45-8.26-2.58s6.6-1.7,8.68-1.49,3.66,1.3,3.55,2.42S27.49,18.17,25.42,18Z"/><path class="cls-1" d="M4.05,16.08c2.08.22,8.49.3,8.61-.82s-6.11-3-8.19-3.24-3.85.52-4,1.64S2,15.87,4.05,16.08Z"/><path class="cls-1" d="M24.45,9.68c-1.62,1.32-6.94,4.9-7.66,4s3.46-5.88,5.08-7.19,3.51-1.67,4.22-.8S26.07,8.36,24.45,9.68Z"/><path class="cls-1" d="M20.25,24.49c-1.31-1.62-4.89-6.94-4-7.65s5.88,3.45,7.19,5.07,1.68,3.51.8,4.22S21.57,26.11,20.25,24.49Z"/><path class="cls-1" d="M6.47,8.06c1.31,1.62,5.79,6.21,6.67,5.5S11,7.1,9.64,5.48s-3.09-2.35-4-1.64S5.15,6.44,6.47,8.06Z"/><circle class="cls-2" cx="14.7" cy="14.95" r="3.74" transform="translate(-5.67 10) rotate(-31.83)"/></svg>