<svg id="圖層_1" data-name="圖層 1" xmlns="http://www.w3.org/2000/svg" viewBox="0 0 64 64"><defs><style>.cls-1{fill:#fff9e9;}.cls-2{fill:#fde557;}</style></defs><path class="cls-1" d="M12.34,45.8c3.26-3.25,14.13-12.32,15.89-10.56S22,48.93,18.72,52.18s-7.32,4.47-9.09,2.71S9.09,49.06,12.34,45.8Z"/><path class="cls-1" d="M45.28,11.82C42,15.07,33,26,34.72,27.71S48.4,21.45,51.66,18.2s4.47-7.33,2.71-9.09S48.54,8.56,45.28,11.82Z"/><path class="cls-1" d="M18.2,12.34c3.25,3.26,12.32,14.13,10.56,15.89S15.07,22,11.82,18.72,7.35,11.4,9.11,9.63,14.94,9.09,18.2,12.34Z"/><path class="cls-1" d="M52.18,45.28C48.93,42,38.05,33,36.29,34.72S42.55,48.4,45.8,51.66s7.33,4.47,9.09,2.71S55.44,48.54,52.18,45.28Z"/><path class="cls-1" d="M8.34,27.86c4.6,0,18.7,1.28,18.7,3.77s-14.1,5.25-18.7,5.25S0,34.86,0,32.37,3.73,27.86,8.34,27.86Z"/><path class="cls-1" d="M55.66,27.12c-4.6,0-18.7,1.28-18.7,3.77s14.1,5.25,18.7,5.25,8.34-2,8.34-4.51S60.27,27.12,55.66,27.12Z"/><path class="cls-1" d="M36.14,8.34c0,4.6-1.28,18.7-3.77,18.7s-5.25-14.1-5.25-18.7S29.14,0,31.63,0,36.14,3.73,36.14,8.34Z"/><path class="cls-1" d="M36.88,55.66c0-4.6-1.28-18.7-3.77-18.7s-5.25,14.1-5.25,18.7,2,8.34,4.51,8.34S36.88,60.27,36.88,55.66Z"/><circle class="cls-2" cx="32.37" cy="32.4" r="8.26" transform="translate(-3.86 60.42) rotate(-82.74)"/></svg>